<svg width="1000" height="1000" viewBox="0 0 1000 1000" fill="none" xmlns="http://www.w3.org/2000/svg">
<rect width="1000" height="1000" fill="black"/>
<rect x="246" y="246" width="508" height="508" fill="black" stroke="white" stroke-width="4"/>
<rect x="263.5" y="263.5" width="473" height="473" fill="black" stroke="url(#paint0_linear_1_2)" stroke-width="7"/>
<path d="M328.14 623.43L335.31 623.22C337.27 623.22 338.58 623.46 339.24 623.94C339.88 624.38 340.2 625.06 340.2 625.98C340.2 626.88 339.87 627.7 339.21 628.44C338.57 629.16 337.78 629.7 336.84 630.06V630.18C338.04 630.18 339.01 630.44 339.75 630.96C340.49 631.46 340.86 632.29 340.86 633.45C340.86 634.59 340.22 635.77 338.94 636.99C337.66 638.19 336.35 638.98 335.01 639.36C334.53 639.36 333.87 639.26 333.03 639.06C332.21 638.86 331.54 638.66 331.02 638.46C330.8 638.72 330.6 639.09 330.42 639.57L329.79 639.42C330.17 637.64 330.36 635.13 330.36 631.89C330.36 628.63 330.27 626.19 330.09 624.57C329.41 624.31 328.76 624.18 328.14 624.18V623.43ZM334.05 629.76C335.29 629.76 336.19 629.59 336.75 629.25C337.25 628.63 337.5 627.84 337.5 626.88C337.5 625.14 336.55 624.27 334.65 624.27C333.99 624.27 333.38 624.38 332.82 624.6C332.68 625.96 332.61 628.05 332.61 630.87C332.61 633.69 332.65 635.66 332.73 636.78C333.55 637.22 334.45 637.44 335.43 637.44C336.43 637.44 337.19 637.25 337.71 636.87C338.05 636.19 338.22 635.37 338.22 634.41C338.22 633.09 337.83 632.16 337.05 631.62C336.27 631.08 335.14 630.81 333.66 630.81L333.78 629.76H334.05ZM367.302 639.33C366.002 639.11 364.232 639 361.992 639C359.772 639 357.912 639.1 356.412 639.3L356.322 638.55C356.882 638.33 357.522 638.15 358.242 638.01C358.442 636.81 358.542 634.77 358.542 631.89V630.48C358.542 628 358.442 625.96 358.242 624.36C357.582 624.26 356.952 624.11 356.352 623.91L356.472 623.13C357.492 623.29 358.692 623.37 360.072 623.37C361.452 623.37 362.632 623.29 363.612 623.13L363.702 623.88C362.802 624.1 361.912 624.26 361.032 624.36C360.872 625.44 360.792 627.67 360.792 631.05C360.792 634.41 360.872 636.65 361.032 637.77C361.512 637.85 362.192 637.89 363.072 637.89C363.952 637.89 364.742 637.72 365.442 637.38C365.722 636.7 365.862 635.9 365.862 634.98H366.612C366.692 636.52 366.972 637.77 367.452 638.73L367.302 639.33ZM387.439 639.36C385.459 639.36 383.859 638.74 382.639 637.5C381.419 636.24 380.809 634.56 380.809 632.46C380.809 630.36 381.449 628.39 382.729 626.55C384.009 624.71 385.679 623.53 387.739 623.01C389.799 623.01 391.369 623.6 392.449 624.78C393.529 625.94 394.069 627.6 394.069 629.76C394.069 631.92 393.479 633.87 392.299 635.61C391.139 637.35 389.519 638.6 387.439 639.36ZM386.929 624.84C386.029 624.84 385.249 625.09 384.589 625.59C383.769 626.99 383.359 628.75 383.359 630.87C383.359 633.31 384.039 635.18 385.399 636.48C386.119 637.18 386.969 637.53 387.949 637.53C388.929 637.53 389.719 637.27 390.319 636.75C391.119 635.35 391.519 633.64 391.519 631.62C391.519 629.6 391.159 627.97 390.439 626.73C389.719 625.47 388.549 624.84 386.929 624.84ZM415.71 637.26C416.57 637.26 417.42 637.01 418.26 636.51L418.11 633.3C417.55 633.12 416.87 632.96 416.07 632.82L416.16 632.19C416.64 632.23 416.99 632.25 417.21 632.25C418.59 632.25 419.84 631.88 420.96 631.14L421.26 631.68C421.02 631.9 420.8 632.13 420.6 632.37C420.32 635.09 420.14 637.33 420.06 639.09H419.43C419.27 638.35 419.03 637.74 418.71 637.26C417.55 638.28 416.38 638.98 415.2 639.36C413.26 639.36 411.74 638.75 410.64 637.53C409.54 636.29 408.99 634.63 408.99 632.55C408.99 630.45 409.64 628.48 410.94 626.64C412.24 624.8 413.9 623.59 415.92 623.01C417.38 623.01 419.03 623.16 420.87 623.46L420.84 624.12C420.46 624.12 420.1 624.19 419.76 624.33C419.38 625.23 419.13 626.3 419.01 627.54H418.26C418.1 626.86 418.02 626.16 418.02 625.44C417.26 625.06 416.36 624.87 415.32 624.87C414.28 624.87 413.42 625.15 412.74 625.71C411.94 627.17 411.54 628.9 411.54 630.9C411.54 632.88 411.83 634.44 412.41 635.58C413.01 636.7 414.11 637.26 415.71 637.26ZM464.666 639.33C463.366 639.11 461.596 639 459.356 639C457.136 639 455.276 639.1 453.776 639.3L453.686 638.55C454.246 638.33 454.886 638.15 455.606 638.01C455.806 636.81 455.906 634.77 455.906 631.89V630.48C455.906 628 455.806 625.96 455.606 624.36C454.946 624.26 454.316 624.11 453.716 623.91L453.836 623.13C454.856 623.29 456.056 623.37 457.436 623.37C458.816 623.37 459.996 623.29 460.976 623.13L461.066 623.88C460.166 624.1 459.276 624.26 458.396 624.36C458.236 625.44 458.156 627.67 458.156 631.05C458.156 634.41 458.236 636.65 458.396 637.77C458.876 637.85 459.556 637.89 460.436 637.89C461.316 637.89 462.106 637.72 462.806 637.38C463.086 636.7 463.226 635.9 463.226 634.98H463.976C464.056 636.52 464.336 637.77 464.816 638.73L464.666 639.33ZM480.153 623.04C482.033 623.26 483.933 623.37 485.853 623.37C487.773 623.37 489.663 623.26 491.523 623.04L491.643 623.82C491.043 624.06 490.423 624.24 489.783 624.36C489.563 626 489.453 628.28 489.453 631.2C489.453 634.12 489.563 636.4 489.783 638.04C490.183 638.1 490.923 638.25 492.003 638.49L491.883 639.24C490.923 639.08 489.693 639 488.193 639C486.693 639 485.543 639.08 484.743 639.24L484.623 638.46C485.303 638.24 486.073 638.08 486.933 637.98C487.053 636.82 487.143 635.21 487.203 633.15C486.263 633.05 485.323 633 484.383 633C483.443 633 482.623 633.05 481.923 633.15C481.523 634.79 481.323 635.93 481.323 636.57C481.323 637.55 481.673 638.24 482.373 638.64L482.253 639.15C481.793 639.05 480.923 639 479.643 639C478.363 639 477.353 639.08 476.613 639.24L476.493 638.46C476.973 638.28 477.633 638.12 478.473 637.98L482.373 624.3C481.493 624.16 480.723 624 480.063 623.82L480.153 623.04ZM482.163 631.74C482.943 631.86 483.803 631.92 484.743 631.92C485.703 631.92 486.523 631.86 487.203 631.74C487.203 628.04 487.123 625.65 486.963 624.57C486.283 624.53 485.773 624.51 485.433 624.51C485.113 624.51 484.613 624.53 483.933 624.57L482.163 631.74ZM506.558 623.43L513.518 623.22C517.138 623.22 518.948 624.53 518.948 627.15C518.948 628.61 518.298 629.79 516.998 630.69C515.718 631.59 514.258 632.04 512.618 632.04C512.378 632.04 512.208 632.03 512.108 632.01L512.228 631.02H512.498C513.738 631.02 514.658 630.75 515.258 630.21C515.878 629.67 516.188 628.82 516.188 627.66C516.188 626.5 515.938 625.65 515.438 625.11C514.958 624.55 514.178 624.27 513.098 624.27C512.438 624.27 511.818 624.38 511.238 624.6C511.098 625.92 511.028 628.16 511.028 631.32C511.028 634.48 511.118 636.71 511.298 638.01C512.138 638.11 513.018 638.27 513.938 638.49L513.848 639.24C512.868 639.08 511.688 639 510.308 639C508.928 639 507.728 639.08 506.708 639.24L506.588 638.46C507.188 638.26 507.818 638.11 508.478 638.01C508.678 636.61 508.778 634.43 508.778 631.47C508.778 628.49 508.688 626.19 508.508 624.57C507.808 624.31 507.158 624.18 506.558 624.18V623.43ZM560.157 624.99C559.457 624.65 558.787 624.48 558.147 624.48C557.507 624.48 557.077 624.52 556.857 624.6C556.697 625.68 556.617 627.77 556.617 630.87C556.617 633.97 556.727 636.35 556.947 638.01C557.847 638.11 558.677 638.26 559.437 638.46L559.347 639.21C558.307 639.07 557.107 639 555.747 639C554.407 639 553.227 639.08 552.207 639.24L552.087 638.46C552.487 638.34 553.177 638.19 554.157 638.01C554.337 636.57 554.427 634.53 554.427 631.89V630.48C554.427 629.08 554.317 627.12 554.097 624.6C553.877 624.52 553.467 624.48 552.867 624.48C552.267 624.48 551.627 624.62 550.947 624.9C550.747 625.52 550.607 626.35 550.527 627.39H549.747C549.747 625.75 549.477 624.48 548.937 623.58L549.087 623.07C550.627 623.27 552.787 623.37 555.567 623.37C558.347 623.37 560.587 623.26 562.287 623.04L562.467 623.61C561.967 624.17 561.627 624.72 561.447 625.26C561.267 625.78 561.157 626.49 561.117 627.39H560.367C560.227 626.73 560.157 625.93 560.157 624.99ZM575.567 623.43L582.467 623.22C584.267 623.22 585.617 623.49 586.517 624.03C587.417 624.55 587.867 625.51 587.867 626.91C587.867 627.87 587.567 628.72 586.967 629.46C586.387 630.2 585.617 630.75 584.657 631.11L588.017 637.98C588.697 638.1 589.337 638.24 589.937 638.4L589.817 639.21C588.977 639.07 588.027 639 586.967 639C585.927 639 585.107 639.05 584.507 639.15L584.387 638.67C584.647 638.41 584.777 637.98 584.777 637.38C584.777 636.16 584.077 634.2 582.677 631.5C582.257 631.42 581.767 631.38 581.207 631.38L581.267 630.51H581.567C583.927 630.51 585.107 629.43 585.107 627.27C585.107 625.27 584.097 624.27 582.077 624.27C581.397 624.27 580.787 624.38 580.247 624.6C580.107 625.92 580.037 628.18 580.037 631.38C580.037 634.58 580.127 636.79 580.307 638.01C581.187 638.11 582.007 638.26 582.767 638.46L582.677 639.21C581.637 639.07 580.467 639 579.167 639C577.887 639 576.737 639.08 575.717 639.24L575.597 638.46C576.157 638.28 576.787 638.13 577.487 638.01C577.687 636.51 577.787 634.18 577.787 631.02C577.787 627.84 577.697 625.64 577.517 624.42C576.737 624.16 576.087 624.03 575.567 624.03V623.43ZM608.368 624.36C608.208 625.44 608.128 627.65 608.128 630.99C608.128 634.33 608.218 636.67 608.398 638.01C609.298 638.11 610.128 638.26 610.888 638.46L610.798 639.21C609.758 639.07 608.588 639 607.288 639C606.008 639 604.858 639.08 603.838 639.24L603.718 638.46C604.278 638.28 604.908 638.13 605.608 638.01C605.788 636.57 605.878 634.53 605.878 631.89V630.48C605.878 627.84 605.778 625.8 605.578 624.36C604.878 624.24 604.248 624.09 603.688 623.91L603.808 623.13C604.828 623.29 605.978 623.37 607.258 623.37C608.558 623.37 609.728 623.3 610.768 623.16L610.858 623.91C610.098 624.11 609.268 624.26 608.368 624.36ZM632.446 639.21C631.406 639.07 630.236 639 628.936 639C627.656 639 626.506 639.08 625.486 639.24L625.366 638.46C626.006 638.26 626.606 638.11 627.166 638.01C627.346 636.45 627.436 634.41 627.436 631.89V630.48C627.436 627.8 627.336 625.74 627.136 624.3C626.596 624.24 625.946 624.08 625.186 623.82L625.276 623.04C626.416 623.26 627.606 623.37 628.846 623.37C630.106 623.37 631.006 623.3 631.546 623.16L631.606 623.67C631.066 623.81 630.796 624.04 630.796 624.36C630.796 624.6 631.026 625.11 631.486 625.89C631.966 626.65 632.426 627.39 632.866 628.11C634.186 630.21 635.746 632.79 637.546 635.85L637.636 635.79V632.13C637.636 629.45 637.496 627.44 637.216 626.1C636.936 624.74 636.456 623.95 635.776 623.73L635.836 623.22C636.356 623.32 637.136 623.37 638.176 623.37C639.216 623.37 640.286 623.26 641.386 623.04L641.476 623.82C640.656 624.08 639.966 624.24 639.406 624.3C639.206 625.9 639.106 627.96 639.106 630.48V631.89C639.106 634.93 639.206 636.99 639.406 638.07C640.246 638.21 640.916 638.37 641.416 638.55L641.326 639.33C640.326 639.11 639.386 639 638.506 639C637.626 639 636.946 639.04 636.466 639.12C636.466 638.68 636.156 637.94 635.536 636.9C634.936 635.86 634.386 634.94 633.886 634.14C632.266 631.52 630.676 628.86 629.116 626.16L628.996 626.22V630.24C628.996 634.22 629.296 636.81 629.896 638.01C630.796 638.11 631.676 638.26 632.536 638.46L632.446 639.21ZM665.688 623.13C666.708 623.29 667.858 623.37 669.138 623.37C670.438 623.37 671.608 623.3 672.648 623.16L672.738 623.91C671.978 624.11 671.148 624.26 670.248 624.36C670.048 625.6 669.948 627.64 669.948 630.48V631.89C669.948 634.77 670.048 636.81 670.248 638.01C671.148 638.11 671.978 638.26 672.738 638.46L672.648 639.21C671.608 639.07 670.438 639 669.138 639C667.858 639 666.708 639.08 665.688 639.24L665.568 638.46C666.128 638.28 666.758 638.13 667.458 638.01C667.618 635.75 667.708 633.49 667.728 631.23C666.448 631.11 665.268 631.05 664.188 631.05C663.108 631.05 661.938 631.11 660.678 631.23C660.678 634.53 660.768 636.79 660.948 638.01C661.848 638.11 662.678 638.26 663.438 638.46L663.348 639.21C662.308 639.07 661.138 639 659.838 639C658.558 639 657.408 639.08 656.388 639.24L656.268 638.46C656.828 638.28 657.458 638.13 658.158 638.01C658.338 636.57 658.428 634.53 658.428 631.89V630.48C658.428 627.84 658.328 625.8 658.128 624.36C657.428 624.24 656.798 624.09 656.238 623.91L656.358 623.13C657.378 623.29 658.528 623.37 659.808 623.37C661.108 623.37 662.278 623.3 663.318 623.16L663.408 623.91C662.648 624.11 661.818 624.26 660.918 624.36C660.758 625.52 660.678 627.31 660.678 629.73C661.798 629.89 662.998 629.97 664.278 629.97C665.578 629.97 666.728 629.9 667.728 629.76C667.708 628.06 667.618 626.26 667.458 624.36C666.758 624.24 666.128 624.09 665.568 623.91L665.688 623.13Z" fill="white"/>
<path d="M413.631 584H402.996L387.234 541.812H399.1L410.789 575.768L421.365 541.812H428.572L413.631 584ZM439.061 584H433.67V541.812H441.229L466.863 570.787V541.812H472.225V584H464.666L439.061 555.055V584ZM493.406 584H481.775V541.812H504.568C506.541 541.812 508.426 542.076 510.223 542.604C512.039 543.131 513.641 543.932 515.027 545.006C516.414 546.061 517.518 547.398 518.338 549.02C519.178 550.621 519.598 552.506 519.598 554.674C519.598 556.041 519.402 557.33 519.012 558.541C518.621 559.732 518.074 560.826 517.371 561.822C516.688 562.818 515.877 563.717 514.939 564.518C514.002 565.318 512.977 565.992 511.863 566.539C510.75 567.086 509.568 567.506 508.318 567.799C507.088 568.092 505.838 568.238 504.568 568.238H493.406V584ZM507.82 554.674C507.82 551.959 507.127 549.83 505.74 548.287C504.373 546.725 502.303 545.943 499.529 545.943H493.406V564.254H499.529C501.014 564.254 502.273 564.02 503.309 563.551C504.363 563.062 505.223 562.389 505.887 561.529C506.551 560.67 507.039 559.664 507.352 558.512C507.664 557.34 507.82 556.061 507.82 554.674ZM537.293 584H525.662V541.812H537.293V560.24H552.703V541.812H564.334V584H552.703V565.602H537.293V584ZM586.248 541.812C585.721 543.395 585.262 545.035 584.871 546.734C584.48 548.414 584.158 550.104 583.904 551.803C583.65 553.482 583.455 555.143 583.318 556.783C583.201 558.424 583.143 559.977 583.143 561.441C583.143 562.516 583.143 563.727 583.143 565.074C583.162 566.402 583.24 567.76 583.377 569.146C583.533 570.533 583.777 571.891 584.109 573.219C584.441 574.527 584.93 575.699 585.574 576.734C586.238 577.77 587.078 578.6 588.094 579.225C589.129 579.85 590.408 580.162 591.932 580.162C593.279 580.162 594.432 579.938 595.389 579.488C596.365 579.02 597.186 578.395 597.85 577.613C598.533 576.832 599.07 575.934 599.461 574.918C599.871 573.902 600.184 572.838 600.398 571.725C600.633 570.611 600.779 569.488 600.838 568.355C600.916 567.203 600.955 566.109 600.955 565.074V541.812H612.586V563.258C612.586 566.324 612.098 569.176 611.121 571.812C610.145 574.449 608.768 576.744 606.99 578.697C605.213 580.631 603.064 582.154 600.545 583.268C598.025 584.361 595.232 584.908 592.166 584.908C590.057 584.908 588.094 584.605 586.277 584C584.461 583.414 582.791 582.604 581.268 581.568C579.764 580.514 578.416 579.273 577.225 577.848C576.053 576.402 575.066 574.83 574.266 573.131C573.484 571.432 572.889 569.645 572.479 567.77C572.068 565.875 571.883 563.961 571.922 562.027V561.441C571.941 559.879 572.098 558.268 572.391 556.607C572.684 554.928 573.074 553.248 573.562 551.568C574.07 549.889 574.676 548.229 575.379 546.588C576.082 544.928 576.863 543.336 577.723 541.812H586.248Z" fill="url(#paint1_linear_1_2)"/>
<path d="M588.404 409.318C586.429 426.039 578.795 445.48 563.547 454.41C540.509 467.907 542.438 488.666 497.47 497.69C490.459 499.098 483.806 499.691 477.532 499.574C474.159 499.511 470.894 499.239 467.746 498.776C439.166 494.601 419.934 474.735 412.878 450.755C403.592 419.217 422.133 398.57 434.422 386.13C446.712 373.69 455.713 334.928 499.849 325.709C506.579 324.306 513.461 323.59 520.341 323.762C536.045 324.148 553.173 329.304 565.025 340.067C565.915 340.876 566.78 341.714 567.624 342.578C584.097 359.486 591.097 386.523 588.404 409.318Z" fill="white"/>
<g opacity="0.699997">
<g opacity="0.699997">
<path opacity="0.699997" d="M588.404 409.318C586.429 426.039 578.795 445.48 563.547 454.41C540.509 467.907 542.438 488.666 497.47 497.69C490.459 499.098 483.806 499.691 477.532 499.574C474.159 499.511 470.894 499.239 467.746 498.776C439.166 494.601 419.934 474.735 412.878 450.755C403.592 419.217 422.133 398.57 434.422 386.13C446.712 373.69 455.713 334.928 499.849 325.709C506.579 324.306 513.461 323.59 520.341 323.762C536.045 324.148 553.173 329.304 565.025 340.067C565.915 340.876 566.78 341.714 567.624 342.578C584.097 359.486 591.097 386.523 588.404 409.318Z" fill="white"/>
</g>
</g>
<path d="M585.514 427.171H591.587" stroke="#1A2E35" stroke-width="1.33333" stroke-miterlimit="10" stroke-linecap="round" stroke-linejoin="round"/>
<path d="M409.039 427.171H582.791" stroke="#1A2E35" stroke-width="1.33333" stroke-miterlimit="10" stroke-linecap="round" stroke-linejoin="round"/>
<path d="M562.439 386.329C558.246 386.329 554.847 382.93 554.847 378.738C554.847 374.545 558.246 371.146 562.439 371.146C566.631 371.146 570.03 374.545 570.03 378.738C570.03 382.93 566.631 386.329 562.439 386.329ZM576.186 380.334V377.203L573.187 376.774C572.908 375.24 572.312 373.817 571.464 372.578L573.288 370.146L571.074 367.932L568.65 369.749C567.416 368.894 565.997 368.288 564.466 368.001L564.035 364.991H560.904L560.475 367.99C558.941 368.268 557.518 368.865 556.28 369.712L553.847 367.888L551.633 370.102L553.45 372.526C552.596 373.76 551.99 375.179 551.702 376.711L548.692 377.141V380.272L551.691 380.701C551.969 382.235 552.566 383.658 553.413 384.897L551.59 387.329L553.804 389.544L556.227 387.726C557.462 388.581 558.88 389.187 560.412 389.474L560.842 392.484H563.974L564.402 389.486C565.936 389.207 567.359 388.61 568.598 387.763L571.03 389.587L573.245 387.373L571.428 384.949C572.282 383.715 572.888 382.296 573.176 380.764L576.186 380.334Z" stroke="#1A2E35" stroke-width="1.33333" stroke-miterlimit="10"/>
<path d="M575.034 403.304C572.036 403.304 569.605 400.873 569.605 397.875C569.605 394.877 572.036 392.447 575.034 392.447C578.032 392.447 580.463 394.877 580.463 397.875C580.463 400.873 578.032 403.304 575.034 403.304ZM584.865 399.017V396.778L582.72 396.471C582.521 395.374 582.094 394.357 581.488 393.471L582.792 391.731L581.209 390.148L579.476 391.447C578.593 390.836 577.579 390.403 576.484 390.197L576.176 388.045H573.936L573.63 390.189C572.533 390.389 571.515 390.815 570.629 391.421L568.89 390.117L567.307 391.7L568.606 393.433C567.995 394.316 567.561 395.331 567.356 396.426L565.203 396.734V398.973L567.348 399.28C567.547 400.377 567.974 401.394 568.579 402.28L567.276 404.02L568.859 405.603L570.592 404.303C571.475 404.915 572.489 405.348 573.584 405.553L573.892 407.706H576.132L576.438 405.562C577.535 405.363 578.553 404.936 579.439 404.33L581.178 405.634L582.761 404.051L581.462 402.317C582.073 401.435 582.507 400.42 582.712 399.325L584.865 399.017Z" stroke="#1A2E35" stroke-width="1.33333" stroke-miterlimit="10"/>
<path d="M439.151 392.006C442.977 392.006 446.078 395.107 446.078 398.933C446.078 402.759 442.977 405.86 439.151 405.86C435.325 405.86 432.224 402.759 432.224 398.933C432.224 395.107 435.325 392.006 439.151 392.006ZM426.607 397.477V400.334L429.343 400.725C429.598 402.125 430.142 403.423 430.915 404.554L429.251 406.773L431.271 408.793L433.483 407.135C434.609 407.915 435.904 408.468 437.301 408.731L437.694 411.477H440.551L440.943 408.741C442.343 408.487 443.641 407.942 444.771 407.169L446.991 408.833L449.011 406.813L447.353 404.601C448.133 403.475 448.686 402.181 448.948 400.783L451.695 400.39V397.533L448.959 397.141C448.704 395.741 448.16 394.443 447.387 393.313L449.051 391.093L447.031 389.073L444.819 390.731C443.693 389.951 442.398 389.398 441.001 389.136L440.608 386.389H437.751L437.359 389.126C435.959 389.38 434.661 389.924 433.531 390.697L431.311 389.033L429.291 391.054L430.949 393.265C430.169 394.392 429.616 395.686 429.354 397.084L426.607 397.477Z" stroke="#1A2E35" stroke-width="1.33333" stroke-miterlimit="10"/>
<path d="M427.19 378.586C429.524 378.586 431.415 380.478 431.415 382.812C431.415 385.146 429.524 387.037 427.19 387.037C424.857 387.037 422.965 385.146 422.965 382.812C422.965 380.478 424.857 378.586 427.19 378.586ZM419.539 381.923V383.666L421.208 383.905C421.363 384.759 421.695 385.551 422.166 386.24L421.151 387.594L422.384 388.827L423.733 387.815C424.42 388.291 425.209 388.628 426.062 388.788L426.302 390.464H428.045L428.283 388.794C429.137 388.639 429.929 388.307 430.619 387.836L431.973 388.851L433.205 387.618L432.193 386.27C432.669 385.582 433.007 384.793 433.166 383.94L434.842 383.7V381.958L433.173 381.719C433.017 380.865 432.685 380.073 432.214 379.384L433.229 378.03L431.997 376.797L430.648 377.809C429.961 377.333 429.171 376.996 428.318 376.836L428.079 375.16H426.336L426.097 376.83C425.243 376.984 424.451 377.316 423.762 377.788L422.408 376.773L421.175 378.005L422.187 379.354C421.711 380.042 421.374 380.831 421.214 381.684L419.539 381.923Z" stroke="#1A2E35" stroke-width="1.33333" stroke-miterlimit="10"/>
<path d="M497.186 345.537C500.391 345.537 502.989 348.135 502.989 351.34C502.989 354.544 500.391 357.142 497.186 357.142C493.981 357.142 491.384 354.544 491.384 351.34C491.384 348.135 493.981 345.537 497.186 345.537ZM486.678 350.119V352.513L488.971 352.84C489.184 354.013 489.639 355.1 490.287 356.048L488.893 357.907L490.586 359.599L492.438 358.21C493.382 358.864 494.466 359.327 495.637 359.546L495.966 361.847H498.359L498.687 359.555C499.86 359.342 500.947 358.886 501.895 358.238L503.753 359.632L505.446 357.94L504.057 356.087C504.71 355.144 505.173 354.06 505.393 352.889L507.694 352.56V350.166L505.402 349.838C505.189 348.666 504.733 347.578 504.085 346.631L505.479 344.772L503.787 343.08L501.934 344.469C500.991 343.816 499.906 343.352 498.736 343.133L498.407 340.832H496.013L495.685 343.124C494.513 343.337 493.425 343.793 492.478 344.44L490.619 343.046L488.927 344.739L490.315 346.592C489.662 347.535 489.199 348.62 488.979 349.79L486.678 350.119Z" stroke="#1A2E35" stroke-width="1.33333" stroke-miterlimit="10"/>
<path d="M559.19 429.765H442.774V353.187C442.774 351.426 444.201 349.998 445.962 349.998H556.002C557.763 349.998 559.19 351.426 559.19 353.187V429.765Z" fill="#1A2E35"/>
<path d="M559.19 429.765H442.774V353.187C442.774 351.426 444.201 349.998 445.962 349.998H556.002C557.763 349.998 559.19 351.426 559.19 353.187V429.765Z" stroke="#1A2E35" stroke-width="1.33333" stroke-miterlimit="10" stroke-linecap="round" stroke-linejoin="round"/>
<path d="M576.653 465.027H425.312L442.774 429.765H559.19L576.653 465.027Z" fill="white"/>
<path d="M576.653 465.027H425.312L442.774 429.765H559.19L576.653 465.027Z" stroke="#1A2E35" stroke-width="1.33333" stroke-miterlimit="10" stroke-linecap="round" stroke-linejoin="round"/>
<path d="M552.139 423.449H449.826V356.314H552.139V423.449Z" fill="black" stroke="#1A2E35" stroke-width="1.33333" stroke-miterlimit="10" stroke-linecap="round" stroke-linejoin="round"/>
<path d="M496.126 440.927L496.328 436.631H490.176L489.769 440.927H496.126Z" fill="#1A2E35"/>
<path d="M496.126 440.927L496.328 436.631H490.176L489.769 440.927H496.126Z" stroke="white" stroke-width="1.33333" stroke-miterlimit="10" stroke-linecap="round" stroke-linejoin="round"/>
<path d="M508.84 440.927L508.63 436.631H502.479L502.483 440.927H508.84Z" fill="#1A2E35"/>
<path d="M508.84 440.927L508.63 436.631H502.479L502.483 440.927H508.84Z" stroke="white" stroke-width="1.33333" stroke-miterlimit="10" stroke-linecap="round" stroke-linejoin="round"/>
<path d="M541.948 445.521H548.525L546.981 440.927H540.624L541.948 445.521Z" fill="#1A2E35"/>
<path d="M541.948 445.521H548.525L546.981 440.927H540.624L541.948 445.521Z" stroke="white" stroke-width="1.33333" stroke-miterlimit="10" stroke-linecap="round" stroke-linejoin="round"/>
<path d="M489.769 440.927L490.177 436.631H484.026L483.412 440.927H489.769Z" fill="#1A2E35"/>
<path d="M489.769 440.927L490.177 436.631H484.026L483.412 440.927H489.769Z" stroke="white" stroke-width="1.33333" stroke-miterlimit="10" stroke-linecap="round" stroke-linejoin="round"/>
<path d="M477.056 440.927L477.874 436.631H471.723L470.698 440.927H477.056Z" fill="#1A2E35"/>
<path d="M477.056 440.927L477.874 436.631H471.723L470.698 440.927H477.056Z" stroke="white" stroke-width="1.33333" stroke-miterlimit="10" stroke-linecap="round" stroke-linejoin="round"/>
<path d="M534.268 440.927L533.235 436.631H527.084L527.91 440.927H534.268Z" fill="#1A2E35"/>
<path d="M534.268 440.927L533.235 436.631H527.084L527.91 440.927H534.268Z" stroke="white" stroke-width="1.33333" stroke-miterlimit="10" stroke-linecap="round" stroke-linejoin="round"/>
<path d="M540.624 440.927L539.386 436.631H533.235L534.267 440.927H540.624Z" fill="#1A2E35"/>
<path d="M540.624 440.927L539.386 436.631H533.235L534.267 440.927H540.624Z" stroke="white" stroke-width="1.33333" stroke-miterlimit="10" stroke-linecap="round" stroke-linejoin="round"/>
<path d="M470.698 440.927L471.723 436.631H465.572L464.342 440.927H470.698Z" fill="#1A2E35"/>
<path d="M470.698 440.927L471.723 436.631H465.572L464.342 440.927H470.698Z" stroke="white" stroke-width="1.33333" stroke-miterlimit="10" stroke-linecap="round" stroke-linejoin="round"/>
<path d="M515.197 440.927L514.781 436.631H508.63L508.84 440.927H515.197Z" fill="#1A2E35"/>
<path d="M515.197 440.927L514.781 436.631H508.63L508.84 440.927H515.197Z" stroke="white" stroke-width="1.33333" stroke-miterlimit="10" stroke-linecap="round" stroke-linejoin="round"/>
<path d="M546.981 440.927L545.537 436.631H539.386L540.624 440.927H546.981Z" fill="#1A2E35"/>
<path d="M546.981 440.927L545.537 436.631H539.386L540.624 440.927H546.981Z" stroke="white" stroke-width="1.33333" stroke-miterlimit="10" stroke-linecap="round" stroke-linejoin="round"/>
<path d="M527.911 440.927L527.084 436.631H520.933L521.553 440.927H527.911Z" fill="#1A2E35"/>
<path d="M527.911 440.927L527.084 436.631H520.933L521.553 440.927H527.911Z" stroke="white" stroke-width="1.33333" stroke-miterlimit="10" stroke-linecap="round" stroke-linejoin="round"/>
<path d="M521.554 440.927L520.933 436.631H514.781L515.197 440.927H521.554Z" fill="#1A2E35"/>
<path d="M521.554 440.927L520.933 436.631H514.781L515.197 440.927H521.554Z" stroke="white" stroke-width="1.33333" stroke-miterlimit="10" stroke-linecap="round" stroke-linejoin="round"/>
<path d="M502.483 440.927L502.479 436.631H496.328L496.126 440.927H502.483Z" fill="#1A2E35"/>
<path d="M502.483 440.927L502.479 436.631H496.328L496.126 440.927H502.483Z" stroke="white" stroke-width="1.33333" stroke-miterlimit="10" stroke-linecap="round" stroke-linejoin="round"/>
<path d="M457.985 440.927H451.628L449.873 445.521H456.449L457.985 440.927Z" fill="#1A2E35"/>
<path d="M457.985 440.927H451.628L449.873 445.521H456.449L457.985 440.927Z" stroke="white" stroke-width="1.33333" stroke-miterlimit="10" stroke-linecap="round" stroke-linejoin="round"/>
<path d="M459.421 436.63H453.27L451.628 440.927H457.985L459.421 436.63Z" fill="#1A2E35"/>
<path d="M459.421 436.63H453.27L451.628 440.927H457.985L459.421 436.63Z" stroke="white" stroke-width="1.33333" stroke-miterlimit="10" stroke-linecap="round" stroke-linejoin="round"/>
<path d="M464.342 440.927L465.572 436.631H459.421L457.984 440.927H464.342Z" fill="#1A2E35"/>
<path d="M464.342 440.927L465.572 436.631H459.421L457.984 440.927H464.342Z" stroke="white" stroke-width="1.33333" stroke-miterlimit="10" stroke-linecap="round" stroke-linejoin="round"/>
<path d="M447.991 450.445L445.971 455.735H453.036L454.804 450.445H447.991Z" fill="#1A2E35"/>
<path d="M447.991 450.445L445.971 455.735H453.036L454.804 450.445H447.991Z" stroke="white" stroke-width="1.33333" stroke-miterlimit="10" stroke-linecap="round" stroke-linejoin="round"/>
<path d="M456.449 445.521H449.873L447.991 450.445H454.804L456.449 445.521Z" fill="#1A2E35"/>
<path d="M456.449 445.521H449.873L447.991 450.445H454.804L456.449 445.521Z" stroke="white" stroke-width="1.33333" stroke-miterlimit="10" stroke-linecap="round" stroke-linejoin="round"/>
<path d="M454.804 450.445L453.036 455.735H460.102L461.616 450.445H454.804Z" fill="#1A2E35"/>
<path d="M454.804 450.445L453.036 455.735H460.102L461.616 450.445H454.804Z" stroke="white" stroke-width="1.33333" stroke-miterlimit="10" stroke-linecap="round" stroke-linejoin="round"/>
<path d="M483.412 440.927L484.025 436.631H477.874L477.055 440.927H483.412Z" fill="#1A2E35"/>
<path d="M483.412 440.927L484.025 436.631H477.874L477.055 440.927H483.412Z" stroke="white" stroke-width="1.33333" stroke-miterlimit="10" stroke-linecap="round" stroke-linejoin="round"/>
<path d="M482.757 445.521L483.412 440.927H477.055L476.18 445.521H482.757Z" fill="#1A2E35"/>
<path d="M482.757 445.521L483.412 440.927H477.055L476.18 445.521H482.757Z" stroke="white" stroke-width="1.33333" stroke-miterlimit="10" stroke-linecap="round" stroke-linejoin="round"/>
<path d="M476.18 445.521L477.055 440.927H470.699L469.603 445.521H476.18Z" fill="#1A2E35"/>
<path d="M476.18 445.521L477.055 440.927H470.699L469.603 445.521H476.18Z" stroke="white" stroke-width="1.33333" stroke-miterlimit="10" stroke-linecap="round" stroke-linejoin="round"/>
<path d="M489.334 445.521L489.769 440.927H483.412L482.757 445.521H489.334Z" fill="#1A2E35"/>
<path d="M489.334 445.521L489.769 440.927H483.412L482.757 445.521H489.334Z" stroke="white" stroke-width="1.33333" stroke-miterlimit="10" stroke-linecap="round" stroke-linejoin="round"/>
<path d="M464.342 440.927H457.984L456.449 445.521H463.026L464.342 440.927Z" fill="#1A2E35"/>
<path d="M464.342 440.927H457.984L456.449 445.521H463.026L464.342 440.927Z" stroke="white" stroke-width="1.33333" stroke-miterlimit="10" stroke-linecap="round" stroke-linejoin="round"/>
<path d="M543.367 450.445H550.179L548.525 445.521H541.948L543.367 450.445Z" fill="#1A2E35"/>
<path d="M543.367 450.445H550.179L548.525 445.521H541.948L543.367 450.445Z" stroke="white" stroke-width="1.33333" stroke-miterlimit="10" stroke-linecap="round" stroke-linejoin="round"/>
<path d="M469.603 445.521L470.699 440.927H464.342L463.026 445.521H469.603Z" fill="#1A2E35"/>
<path d="M469.603 445.521L470.699 440.927H464.342L463.026 445.521H469.603Z" stroke="white" stroke-width="1.33333" stroke-miterlimit="10" stroke-linecap="round" stroke-linejoin="round"/>
<path d="M456.449 445.521L454.804 450.445H461.616L463.026 445.521H456.449Z" fill="#1A2E35"/>
<path d="M456.449 445.521L454.804 450.445H461.616L463.026 445.521H456.449Z" stroke="white" stroke-width="1.33333" stroke-miterlimit="10" stroke-linecap="round" stroke-linejoin="round"/>
<path d="M528.795 445.521L527.911 440.927H521.553L522.218 445.521H528.795Z" fill="#1A2E35"/>
<path d="M528.795 445.521L527.911 440.927H521.553L522.218 445.521H528.795Z" stroke="white" stroke-width="1.33333" stroke-miterlimit="10" stroke-linecap="round" stroke-linejoin="round"/>
<path d="M522.218 445.521L521.554 440.927H515.197L515.641 445.521H522.218Z" fill="#1A2E35"/>
<path d="M522.218 445.521L521.554 440.927H515.197L515.641 445.521H522.218Z" stroke="white" stroke-width="1.33333" stroke-miterlimit="10" stroke-linecap="round" stroke-linejoin="round"/>
<path d="M541.948 445.521L540.624 440.927H534.268L535.371 445.521H541.948Z" fill="#1A2E35"/>
<path d="M541.948 445.521L540.624 440.927H534.268L535.371 445.521H541.948Z" stroke="white" stroke-width="1.33333" stroke-miterlimit="10" stroke-linecap="round" stroke-linejoin="round"/>
<path d="M502.487 445.521L502.483 440.927H496.126L495.91 445.521H502.487Z" fill="#1A2E35"/>
<path d="M502.487 445.521L502.483 440.927H496.126L495.91 445.521H502.487Z" stroke="white" stroke-width="1.33333" stroke-miterlimit="10" stroke-linecap="round" stroke-linejoin="round"/>
<path d="M515.641 445.521L515.197 440.927H508.84L509.064 445.521H515.641Z" fill="#1A2E35"/>
<path d="M515.641 445.521L515.197 440.927H508.84L509.064 445.521H515.641Z" stroke="white" stroke-width="1.33333" stroke-miterlimit="10" stroke-linecap="round" stroke-linejoin="round"/>
<path d="M509.064 445.521L508.84 440.927H502.483L502.487 445.521H509.064Z" fill="#1A2E35"/>
<path d="M509.064 445.521L508.84 440.927H502.483L502.487 445.521H509.064Z" stroke="white" stroke-width="1.33333" stroke-miterlimit="10" stroke-linecap="round" stroke-linejoin="round"/>
<path d="M495.91 445.521L496.126 440.927H489.769L489.334 445.521H495.91Z" fill="#1A2E35"/>
<path d="M495.91 445.521L496.126 440.927H489.769L489.334 445.521H495.91Z" stroke="white" stroke-width="1.33333" stroke-miterlimit="10" stroke-linecap="round" stroke-linejoin="round"/>
<path d="M515.641 445.521L516.116 450.445H522.929L522.218 445.521H515.641Z" fill="#1A2E35"/>
<path d="M515.641 445.521L516.116 450.445H522.929L522.218 445.521H515.641Z" stroke="white" stroke-width="1.33333" stroke-miterlimit="10" stroke-linecap="round" stroke-linejoin="round"/>
<path d="M522.218 445.521L522.929 450.445H529.742L528.794 445.521H522.218Z" fill="#1A2E35"/>
<path d="M522.218 445.521L522.929 450.445H529.742L528.794 445.521H522.218Z" stroke="white" stroke-width="1.33333" stroke-miterlimit="10" stroke-linecap="round" stroke-linejoin="round"/>
<path d="M463.026 445.521L461.617 450.445H468.429L469.603 445.521H463.026Z" fill="#1A2E35"/>
<path d="M463.026 445.521L461.617 450.445H468.429L469.603 445.521H463.026Z" stroke="white" stroke-width="1.33333" stroke-miterlimit="10" stroke-linecap="round" stroke-linejoin="round"/>
<path d="M528.795 445.521L529.742 450.445H536.554L535.371 445.521H528.795Z" fill="#1A2E35"/>
<path d="M528.795 445.521L529.742 450.445H536.554L535.371 445.521H528.795Z" stroke="white" stroke-width="1.33333" stroke-miterlimit="10" stroke-linecap="round" stroke-linejoin="round"/>
<path d="M502.487 445.521L502.492 450.445H509.304L509.064 445.521H502.487Z" fill="#1A2E35"/>
<path d="M502.487 445.521L502.492 450.445H509.304L509.064 445.521H502.487Z" stroke="white" stroke-width="1.33333" stroke-miterlimit="10" stroke-linecap="round" stroke-linejoin="round"/>
<path d="M535.371 445.521L536.554 450.445H543.367L541.948 445.521H535.371Z" fill="#1A2E35"/>
<path d="M535.371 445.521L536.554 450.445H543.367L541.948 445.521H535.371Z" stroke="white" stroke-width="1.33333" stroke-miterlimit="10" stroke-linecap="round" stroke-linejoin="round"/>
<path d="M509.064 445.521L509.305 450.445H516.117L515.641 445.521H509.064Z" fill="#1A2E35"/>
<path d="M509.064 445.521L509.305 450.445H516.117L515.641 445.521H509.064Z" stroke="white" stroke-width="1.33333" stroke-miterlimit="10" stroke-linecap="round" stroke-linejoin="round"/>
<path d="M476.18 445.521L475.242 450.445H482.054L482.757 445.521H476.18Z" fill="#1A2E35"/>
<path d="M476.18 445.521L475.242 450.445H482.054L482.757 445.521H476.18Z" stroke="white" stroke-width="1.33333" stroke-miterlimit="10" stroke-linecap="round" stroke-linejoin="round"/>
<path d="M469.603 445.521L468.429 450.445H475.242L476.18 445.521H469.603Z" fill="#1A2E35"/>
<path d="M469.603 445.521L468.429 450.445H475.242L476.18 445.521H469.603Z" stroke="white" stroke-width="1.33333" stroke-miterlimit="10" stroke-linecap="round" stroke-linejoin="round"/>
<path d="M495.91 445.521L495.679 450.445H502.492L502.487 445.521H495.91Z" fill="#1A2E35"/>
<path d="M495.91 445.521L495.679 450.445H502.492L502.487 445.521H495.91Z" stroke="white" stroke-width="1.33333" stroke-miterlimit="10" stroke-linecap="round" stroke-linejoin="round"/>
<path d="M489.334 445.521L488.867 450.445H495.679L495.91 445.521H489.334Z" fill="#1A2E35"/>
<path d="M489.334 445.521L488.867 450.445H495.679L495.91 445.521H489.334Z" stroke="white" stroke-width="1.33333" stroke-miterlimit="10" stroke-linecap="round" stroke-linejoin="round"/>
<path d="M482.757 445.521L482.054 450.445H488.867L489.333 445.521H482.757Z" fill="#1A2E35"/>
<path d="M482.757 445.521L482.054 450.445H488.867L489.333 445.521H482.757Z" stroke="white" stroke-width="1.33333" stroke-miterlimit="10" stroke-linecap="round" stroke-linejoin="round"/>
<path d="M535.371 445.521L534.268 440.927H527.911L528.795 445.521H535.371Z" fill="#1A2E35"/>
<path d="M535.371 445.521L534.268 440.927H527.911L528.795 445.521H535.371Z" stroke="white" stroke-width="1.33333" stroke-miterlimit="10" stroke-linecap="round" stroke-linejoin="round"/>
<path d="M459.421 436.63L460.89 432.232H454.95L453.27 436.63H459.421Z" fill="#1A2E35"/>
<path d="M459.421 436.63L460.89 432.232H454.95L453.27 436.63H459.421Z" stroke="white" stroke-width="1.33333" stroke-miterlimit="10" stroke-linecap="round" stroke-linejoin="round"/>
<path d="M453.27 436.63H447.592L445.76 440.927H451.628L453.27 436.63Z" fill="#1A2E35"/>
<path d="M453.27 436.63H447.592L445.76 440.927H451.628L453.27 436.63Z" stroke="white" stroke-width="1.33333" stroke-miterlimit="10" stroke-linecap="round" stroke-linejoin="round"/>
<path d="M454.95 432.232H449.466L447.591 436.63H453.269L454.95 432.232Z" fill="#1A2E35"/>
<path d="M454.95 432.232H449.466L447.591 436.63H453.269L454.95 432.232Z" stroke="white" stroke-width="1.33333" stroke-miterlimit="10" stroke-linecap="round" stroke-linejoin="round"/>
<path d="M451.628 440.927H445.76L443.802 445.521H449.873L451.628 440.927Z" fill="#1A2E35"/>
<path d="M451.628 440.927H445.76L443.802 445.521H449.873L451.628 440.927Z" stroke="white" stroke-width="1.33333" stroke-miterlimit="10" stroke-linecap="round" stroke-linejoin="round"/>
<path d="M449.873 445.521H443.802L441.703 450.445H447.992L449.873 445.521Z" fill="#1A2E35"/>
<path d="M449.873 445.521H443.802L441.703 450.445H447.992L449.873 445.521Z" stroke="white" stroke-width="1.33333" stroke-miterlimit="10" stroke-linecap="round" stroke-linejoin="round"/>
<path d="M447.991 450.445H441.703L439.448 455.735H445.971L447.991 450.445Z" fill="#1A2E35"/>
<path d="M447.991 450.445H441.703L439.448 455.735H445.971L447.991 450.445Z" stroke="white" stroke-width="1.33333" stroke-miterlimit="10" stroke-linecap="round" stroke-linejoin="round"/>
<path d="M553.338 440.927L555.102 445.521H560.92L558.962 440.927H553.338Z" fill="#1A2E35"/>
<path d="M553.338 440.927L555.102 445.521H560.92L558.962 440.927H553.338Z" stroke="white" stroke-width="1.33333" stroke-miterlimit="10" stroke-linecap="round" stroke-linejoin="round"/>
<path d="M556.992 450.445H563.018L560.92 445.521H555.102L556.992 450.445Z" fill="#1A2E35"/>
<path d="M556.992 450.445H563.018L560.92 445.521H555.102L556.992 450.445Z" stroke="white" stroke-width="1.33333" stroke-miterlimit="10" stroke-linecap="round" stroke-linejoin="round"/>
<path d="M559.023 455.734H565.273L563.018 450.445H556.992L559.023 455.734Z" fill="#1A2E35"/>
<path d="M559.023 455.734H565.273L563.018 450.445H556.992L559.023 455.734Z" stroke="white" stroke-width="1.33333" stroke-miterlimit="10" stroke-linecap="round" stroke-linejoin="round"/>
<path d="M508.63 436.63L508.416 432.232H502.475L502.479 436.63H508.63Z" fill="#1A2E35"/>
<path d="M508.63 436.63L508.416 432.232H502.475L502.479 436.63H508.63Z" stroke="white" stroke-width="1.33333" stroke-miterlimit="10" stroke-linecap="round" stroke-linejoin="round"/>
<path d="M553.338 440.927H558.962L557.13 436.631H551.689L553.338 440.927Z" fill="#1A2E35"/>
<path d="M553.338 440.927H558.962L557.13 436.631H551.689L553.338 440.927Z" stroke="white" stroke-width="1.33333" stroke-miterlimit="10" stroke-linecap="round" stroke-linejoin="round"/>
<path d="M550.179 450.445H556.992L555.102 445.521H548.525L550.179 450.445Z" fill="#1A2E35"/>
<path d="M550.179 450.445H556.992L555.102 445.521H548.525L550.179 450.445Z" stroke="white" stroke-width="1.33333" stroke-miterlimit="10" stroke-linecap="round" stroke-linejoin="round"/>
<path d="M465.572 436.63L466.831 432.232H460.89L459.421 436.63H465.572Z" fill="#1A2E35"/>
<path d="M465.572 436.63L466.831 432.232H460.89L459.421 436.63H465.572Z" stroke="white" stroke-width="1.33333" stroke-miterlimit="10" stroke-linecap="round" stroke-linejoin="round"/>
<path d="M545.537 436.63L546.981 440.927H553.338L551.689 436.63H545.537Z" fill="#1A2E35"/>
<path d="M545.537 436.63L546.981 440.927H553.338L551.689 436.63H545.537Z" stroke="white" stroke-width="1.33333" stroke-miterlimit="10" stroke-linecap="round" stroke-linejoin="round"/>
<path d="M557.13 436.63L555.255 432.232H550L551.689 436.63H557.13Z" fill="#1A2E35"/>
<path d="M557.13 436.63L555.255 432.232H550L551.689 436.63H557.13Z" stroke="white" stroke-width="1.33333" stroke-miterlimit="10" stroke-linecap="round" stroke-linejoin="round"/>
<path d="M551.689 436.63L550 432.232H544.06L545.537 436.63H551.689Z" fill="#1A2E35"/>
<path d="M551.689 436.63L550 432.232H544.06L545.537 436.63H551.689Z" stroke="white" stroke-width="1.33333" stroke-miterlimit="10" stroke-linecap="round" stroke-linejoin="round"/>
<path d="M529.742 450.445L530.76 455.735H537.825L536.554 450.445H529.742Z" fill="#1A2E35"/>
<path d="M529.742 450.445L530.76 455.735H537.825L536.554 450.445H529.742Z" stroke="white" stroke-width="1.33333" stroke-miterlimit="10" stroke-linecap="round" stroke-linejoin="round"/>
<path d="M551.957 455.734H559.023L556.992 450.445H550.179L551.957 455.734Z" fill="#1A2E35"/>
<path d="M551.957 455.734H559.023L556.992 450.445H550.179L551.957 455.734Z" stroke="white" stroke-width="1.33333" stroke-miterlimit="10" stroke-linecap="round" stroke-linejoin="round"/>
<path d="M545.537 436.63L544.06 432.232H538.119L539.386 436.63H545.537Z" fill="#1A2E35"/>
<path d="M545.537 436.63L544.06 432.232H538.119L539.386 436.63H545.537Z" stroke="white" stroke-width="1.33333" stroke-miterlimit="10" stroke-linecap="round" stroke-linejoin="round"/>
<path d="M543.367 450.445L544.891 455.735H551.957L550.179 450.445H543.367Z" fill="#1A2E35"/>
<path d="M543.367 450.445L544.891 455.735H551.957L550.179 450.445H543.367Z" stroke="white" stroke-width="1.33333" stroke-miterlimit="10" stroke-linecap="round" stroke-linejoin="round"/>
<path d="M536.554 450.445L537.826 455.735H544.891L543.367 450.445H536.554Z" fill="#1A2E35"/>
<path d="M536.554 450.445L537.826 455.735H544.891L543.367 450.445H536.554Z" stroke="white" stroke-width="1.33333" stroke-miterlimit="10" stroke-linecap="round" stroke-linejoin="round"/>
<path d="M548.525 445.521H555.102L553.338 440.927H546.981L548.525 445.521Z" fill="#1A2E35"/>
<path d="M548.525 445.521H555.102L553.338 440.927H546.981L548.525 445.521Z" stroke="white" stroke-width="1.33333" stroke-miterlimit="10" stroke-linecap="round" stroke-linejoin="round"/>
<path d="M490.177 436.63L490.593 432.232H484.653L484.025 436.63H490.177Z" fill="#1A2E35"/>
<path d="M490.177 436.63L490.593 432.232H484.653L484.025 436.63H490.177Z" stroke="white" stroke-width="1.33333" stroke-miterlimit="10" stroke-linecap="round" stroke-linejoin="round"/>
<path d="M539.386 436.63L538.119 432.232H532.178L533.235 436.63H539.386Z" fill="#1A2E35"/>
<path d="M539.386 436.63L538.119 432.232H532.178L533.235 436.63H539.386Z" stroke="white" stroke-width="1.33333" stroke-miterlimit="10" stroke-linecap="round" stroke-linejoin="round"/>
<path d="M484.025 436.63L484.653 432.232H478.712L477.874 436.63H484.025Z" fill="#1A2E35"/>
<path d="M484.025 436.63L484.653 432.232H478.712L477.874 436.63H484.025Z" stroke="white" stroke-width="1.33333" stroke-miterlimit="10" stroke-linecap="round" stroke-linejoin="round"/>
<path d="M502.479 436.63L502.475 432.232H496.535L496.328 436.63H502.479Z" fill="#1A2E35"/>
<path d="M502.479 436.63L502.475 432.232H496.535L496.328 436.63H502.479Z" stroke="white" stroke-width="1.33333" stroke-miterlimit="10" stroke-linecap="round" stroke-linejoin="round"/>
<path d="M477.874 436.63L478.712 432.232H472.772L471.723 436.63H477.874Z" fill="#1A2E35"/>
<path d="M477.874 436.63L478.712 432.232H472.772L471.723 436.63H477.874Z" stroke="white" stroke-width="1.33333" stroke-miterlimit="10" stroke-linecap="round" stroke-linejoin="round"/>
<path d="M471.723 436.63L472.772 432.232H466.831L465.572 436.63H471.723Z" fill="#1A2E35"/>
<path d="M471.723 436.63L472.772 432.232H466.831L465.572 436.63H471.723Z" stroke="white" stroke-width="1.33333" stroke-miterlimit="10" stroke-linecap="round" stroke-linejoin="round"/>
<path d="M496.328 436.63L496.535 432.232H490.594L490.177 436.63H496.328Z" fill="#1A2E35"/>
<path d="M496.328 436.63L496.535 432.232H490.594L490.177 436.63H496.328Z" stroke="white" stroke-width="1.33333" stroke-miterlimit="10" stroke-linecap="round" stroke-linejoin="round"/>
<path d="M533.235 436.63L532.178 432.232H526.238L527.084 436.63H533.235Z" fill="#1A2E35"/>
<path d="M533.235 436.63L532.178 432.232H526.238L527.084 436.63H533.235Z" stroke="white" stroke-width="1.33333" stroke-miterlimit="10" stroke-linecap="round" stroke-linejoin="round"/>
<path d="M527.084 436.63L526.238 432.232H520.297L520.933 436.63H527.084Z" fill="#1A2E35"/>
<path d="M527.084 436.63L526.238 432.232H520.297L520.933 436.63H527.084Z" stroke="white" stroke-width="1.33333" stroke-miterlimit="10" stroke-linecap="round" stroke-linejoin="round"/>
<path d="M514.781 436.63L514.356 432.232H508.416L508.63 436.63H514.781Z" fill="#1A2E35"/>
<path d="M514.781 436.63L514.356 432.232H508.416L508.63 436.63H514.781Z" stroke="white" stroke-width="1.33333" stroke-miterlimit="10" stroke-linecap="round" stroke-linejoin="round"/>
<path d="M529.742 450.445H522.929H516.117H509.304H502.492H495.679H488.867H482.054H475.242H468.429H461.617L460.102 455.735H467.167H474.234H481.299H488.365H495.431H502.497H509.562H516.628H523.694H530.76L529.742 450.445Z" fill="#1A2E35"/>
<path d="M529.742 450.445H522.929H516.117H509.304H502.492H495.679H488.867H482.054H475.242H468.429H461.617L460.102 455.735H467.167H474.234H481.299H488.365H495.431H502.497H509.562H516.628H523.694H530.76L529.742 450.445Z" stroke="white" stroke-width="1.33333" stroke-miterlimit="10" stroke-linecap="round" stroke-linejoin="round"/>
<path d="M520.933 436.63L520.297 432.232H514.356L514.781 436.63H520.933Z" fill="#1A2E35"/>
<path d="M520.933 436.63L520.297 432.232H514.356L514.781 436.63H520.933Z" stroke="white" stroke-width="1.33333" stroke-miterlimit="10" stroke-linecap="round" stroke-linejoin="round"/>
<path d="M576.722 467.176H425.312V465.027H576.722V467.176Z" fill="#1A2E35" stroke="#1A2E35" stroke-width="1.33333" stroke-miterlimit="10" stroke-linecap="round" stroke-linejoin="round"/>
<path d="M456.422 361.609H463.018" stroke="#1A2E35" stroke-width="4" stroke-miterlimit="10" stroke-linecap="round" stroke-linejoin="round"/>
<path d="M456.422 364.996H481.202" stroke="white" stroke-width="4" stroke-miterlimit="10" stroke-linecap="round" stroke-linejoin="round"/>
<path d="M494.751 364.996H519.531" stroke="white" stroke-width="4" stroke-miterlimit="10" stroke-linecap="round" stroke-linejoin="round"/>
<path d="M482.807 364.996H492.612" stroke="#1A2E35" stroke-width="4" stroke-miterlimit="10" stroke-linecap="round" stroke-linejoin="round"/>
<path d="M456.422 368.383H470.684" stroke="#1A2E35" stroke-width="4" stroke-miterlimit="10" stroke-linecap="round" stroke-linejoin="round"/>
<path d="M472.467 368.383H486.729" stroke="#1A2E35" stroke-width="4" stroke-miterlimit="10" stroke-linecap="round" stroke-linejoin="round"/>
<path d="M488.511 368.383H502.773" stroke="#1A2E35" stroke-width="4" stroke-miterlimit="10" stroke-linecap="round" stroke-linejoin="round"/>
<path d="M504.556 368.383H510.617" stroke="#1A2E35" stroke-width="4" stroke-miterlimit="10" stroke-linecap="round" stroke-linejoin="round"/>
<path d="M464.801 361.609H471.397" stroke="#1A2E35" stroke-width="4" stroke-miterlimit="10" stroke-linecap="round" stroke-linejoin="round"/>
<path d="M504.021 361.609H510.617" stroke="#1A2E35" stroke-width="4" stroke-miterlimit="10" stroke-linecap="round" stroke-linejoin="round"/>
<path d="M495.286 361.609H501.882" stroke="white" stroke-width="4" stroke-miterlimit="10" stroke-linecap="round" stroke-linejoin="round"/>
<path d="M473.18 361.609H492.433" stroke="#1A2E35" stroke-width="4" stroke-miterlimit="10" stroke-linecap="round" stroke-linejoin="round"/>
<path d="M456.422 382.288H463.018" stroke="#1A2E35" stroke-width="4" stroke-miterlimit="10" stroke-linecap="round" stroke-linejoin="round"/>
<path d="M456.422 385.676H481.202" stroke="white" stroke-width="4" stroke-miterlimit="10" stroke-linecap="round" stroke-linejoin="round"/>
<path d="M494.751 385.676H519.531" stroke="#1A2E35" stroke-width="4" stroke-miterlimit="10" stroke-linecap="round" stroke-linejoin="round"/>
<path d="M482.807 385.676H492.612" stroke="#1A2E35" stroke-width="4" stroke-miterlimit="10" stroke-linecap="round" stroke-linejoin="round"/>
<path d="M456.422 389.063H470.684" stroke="#1A2E35" stroke-width="4" stroke-miterlimit="10" stroke-linecap="round" stroke-linejoin="round"/>
<path d="M472.467 389.063H486.729" stroke="#1A2E35" stroke-width="4" stroke-miterlimit="10" stroke-linecap="round" stroke-linejoin="round"/>
<path d="M488.511 389.063H502.773" stroke="white" stroke-width="4" stroke-miterlimit="10" stroke-linecap="round" stroke-linejoin="round"/>
<path d="M504.556 389.063H510.617" stroke="#1A2E35" stroke-width="4" stroke-miterlimit="10" stroke-linecap="round" stroke-linejoin="round"/>
<path d="M464.801 382.288H471.397" stroke="#1A2E35" stroke-width="4" stroke-miterlimit="10" stroke-linecap="round" stroke-linejoin="round"/>
<path d="M504.021 382.288H510.617" stroke="#1A2E35" stroke-width="4" stroke-miterlimit="10" stroke-linecap="round" stroke-linejoin="round"/>
<path d="M495.286 382.288H501.882" stroke="white" stroke-width="4" stroke-miterlimit="10" stroke-linecap="round" stroke-linejoin="round"/>
<path d="M473.18 382.288H492.433" stroke="#1A2E35" stroke-width="4" stroke-miterlimit="10" stroke-linecap="round" stroke-linejoin="round"/>
<path d="M456.422 412.773H463.018" stroke="#1A2E35" stroke-width="4" stroke-miterlimit="10" stroke-linecap="round" stroke-linejoin="round"/>
<path d="M456.422 416.161H481.202" stroke="white" stroke-width="4" stroke-miterlimit="10" stroke-linecap="round" stroke-linejoin="round"/>
<path d="M494.751 416.161H519.531" stroke="#1A2E35" stroke-width="4" stroke-miterlimit="10" stroke-linecap="round" stroke-linejoin="round"/>
<path d="M482.807 416.161H492.612" stroke="#1A2E35" stroke-width="4" stroke-miterlimit="10" stroke-linecap="round" stroke-linejoin="round"/>
<path d="M456.422 419.548H470.684" stroke="#1A2E35" stroke-width="4" stroke-miterlimit="10" stroke-linecap="round" stroke-linejoin="round"/>
<path d="M472.467 419.548H486.729" stroke="#1A2E35" stroke-width="4" stroke-miterlimit="10" stroke-linecap="round" stroke-linejoin="round"/>
<path d="M488.511 419.548H502.773" stroke="white" stroke-width="4" stroke-miterlimit="10" stroke-linecap="round" stroke-linejoin="round"/>
<path d="M504.556 419.548H510.617" stroke="#1A2E35" stroke-width="4" stroke-miterlimit="10" stroke-linecap="round" stroke-linejoin="round"/>
<path d="M464.801 412.773H471.397" stroke="#1A2E35" stroke-width="4" stroke-miterlimit="10" stroke-linecap="round" stroke-linejoin="round"/>
<path d="M504.021 412.773H510.617" stroke="#1A2E35" stroke-width="4" stroke-miterlimit="10" stroke-linecap="round" stroke-linejoin="round"/>
<path d="M495.286 412.773H501.882" stroke="white" stroke-width="4" stroke-miterlimit="10" stroke-linecap="round" stroke-linejoin="round"/>
<path d="M473.18 412.773H492.433" stroke="#1A2E35" stroke-width="4" stroke-miterlimit="10" stroke-linecap="round" stroke-linejoin="round"/>
<path d="M493.503 371.949H500.099" stroke="#1A2E35" stroke-width="4" stroke-miterlimit="10" stroke-linecap="round" stroke-linejoin="round"/>
<path d="M484.767 371.949H491.364" stroke="#1A2E35" stroke-width="4" stroke-miterlimit="10" stroke-linecap="round" stroke-linejoin="round"/>
<path d="M462.662 371.949H481.915" stroke="#1A2E35" stroke-width="4" stroke-miterlimit="10" stroke-linecap="round" stroke-linejoin="round"/>
<path d="M493.503 378.01H500.099" stroke="#1A2E35" stroke-width="4" stroke-miterlimit="10" stroke-linecap="round" stroke-linejoin="round"/>
<path d="M484.767 378.01H491.364" stroke="#1A2E35" stroke-width="4" stroke-miterlimit="10" stroke-linecap="round" stroke-linejoin="round"/>
<path d="M462.662 378.01H481.915" stroke="white" stroke-width="4" stroke-miterlimit="10" stroke-linecap="round" stroke-linejoin="round"/>
<path d="M469.258 374.979H462.662" stroke="#1A2E35" stroke-width="4" stroke-miterlimit="10" stroke-linecap="round" stroke-linejoin="round"/>
<path d="M477.993 374.979H471.397" stroke="#1A2E35" stroke-width="4" stroke-miterlimit="10" stroke-linecap="round" stroke-linejoin="round"/>
<path d="M500.099 374.979H480.845" stroke="white" stroke-width="4" stroke-miterlimit="10" stroke-linecap="round" stroke-linejoin="round"/>
<path d="M493.503 393.163H500.099" stroke="#1A2E35" stroke-width="4" stroke-miterlimit="10" stroke-linecap="round" stroke-linejoin="round"/>
<path d="M484.767 393.163H491.364" stroke="#1A2E35" stroke-width="4" stroke-miterlimit="10" stroke-linecap="round" stroke-linejoin="round"/>
<path d="M462.662 393.163H481.915" stroke="#1A2E35" stroke-width="4" stroke-miterlimit="10" stroke-linecap="round" stroke-linejoin="round"/>
<path d="M493.503 399.225H500.099" stroke="#1A2E35" stroke-width="4" stroke-miterlimit="10" stroke-linecap="round" stroke-linejoin="round"/>
<path d="M484.767 399.225H491.364" stroke="#1A2E35" stroke-width="4" stroke-miterlimit="10" stroke-linecap="round" stroke-linejoin="round"/>
<path d="M462.662 399.225H481.915" stroke="white" stroke-width="4" stroke-miterlimit="10" stroke-linecap="round" stroke-linejoin="round"/>
<path d="M469.258 396.194H462.662" stroke="#1A2E35" stroke-width="4" stroke-miterlimit="10" stroke-linecap="round" stroke-linejoin="round"/>
<path d="M477.993 396.194H471.397" stroke="#1A2E35" stroke-width="4" stroke-miterlimit="10" stroke-linecap="round" stroke-linejoin="round"/>
<path d="M500.099 396.194H480.845" stroke="white" stroke-width="4" stroke-miterlimit="10" stroke-linecap="round" stroke-linejoin="round"/>
<path d="M469.258 402.79H462.662" stroke="#1A2E35" stroke-width="4" stroke-miterlimit="10" stroke-linecap="round" stroke-linejoin="round"/>
<path d="M477.993 402.79H471.397" stroke="#1A2E35" stroke-width="4" stroke-miterlimit="10" stroke-linecap="round" stroke-linejoin="round"/>
<path d="M500.099 402.79H480.845" stroke="white" stroke-width="4" stroke-miterlimit="10" stroke-linecap="round" stroke-linejoin="round"/>
<path d="M469.258 408.851H462.662" stroke="#1A2E35" stroke-width="4" stroke-miterlimit="10" stroke-linecap="round" stroke-linejoin="round"/>
<path d="M477.993 408.851H471.397" stroke="#1A2E35" stroke-width="4" stroke-miterlimit="10" stroke-linecap="round" stroke-linejoin="round"/>
<path d="M500.099 408.851H480.845" stroke="white" stroke-width="4" stroke-miterlimit="10" stroke-linecap="round" stroke-linejoin="round"/>
<path d="M493.503 405.821H500.099" stroke="#1A2E35" stroke-width="4" stroke-miterlimit="10" stroke-linecap="round" stroke-linejoin="round"/>
<path d="M484.767 405.821H491.364" stroke="#1A2E35" stroke-width="4" stroke-miterlimit="10" stroke-linecap="round" stroke-linejoin="round"/>
<path d="M462.662 405.821H481.915" stroke="white" stroke-width="4" stroke-miterlimit="10" stroke-linecap="round" stroke-linejoin="round"/>
<path d="M453.975 362.512H451.869V360.432H453.975V362.512Z" fill="#1A2E35"/>
<path d="M453.975 365.93H451.869V363.85H453.975V365.93Z" fill="#1A2E35"/>
<path d="M453.975 369.347H451.869V367.267H453.975V369.347Z" fill="#1A2E35"/>
<path d="M453.975 372.764H451.869V370.684H453.975V372.764Z" fill="#1A2E35"/>
<path d="M453.975 376.182H451.869V374.102H453.975V376.182Z" fill="#1A2E35"/>
<path d="M453.975 379.599H451.869V377.519H453.975V379.599Z" fill="#1A2E35"/>
<path d="M453.975 383.016H451.869V380.936H453.975V383.016Z" fill="#1A2E35"/>
<path d="M453.975 386.433H451.869V384.353H453.975V386.433Z" fill="#1A2E35"/>
<path d="M453.975 389.851H451.869V387.771H453.975V389.851Z" fill="#1A2E35"/>
<path d="M453.975 393.268H451.869V391.188H453.975V393.268Z" fill="#1A2E35"/>
<path d="M453.975 396.685H451.869V394.605H453.975V396.685Z" fill="#1A2E35"/>
<path d="M453.975 400.102H451.869V398.022H453.975V400.102Z" fill="#1A2E35"/>
<path d="M453.975 403.52H451.869V401.44H453.975V403.52Z" fill="#1A2E35"/>
<path d="M453.975 406.937H451.869V404.857H453.975V406.937Z" fill="#1A2E35"/>
<path d="M453.975 410.354H451.869V408.274H453.975V410.354Z" fill="#1A2E35"/>
<path d="M453.975 413.772H451.869V411.692H453.975V413.772Z" fill="#1A2E35"/>
<path d="M453.975 417.189H451.869V415.109H453.975V417.189Z" fill="#1A2E35"/>
<path d="M453.975 420.606H451.869V418.526H453.975V420.606Z" fill="#1A2E35"/>
<path d="M552.015 323.065C539.38 323.065 529.138 333.307 529.138 345.941C529.138 352.442 531.854 358.304 536.207 362.469L532.951 368.547L540.936 365.957C544.218 367.778 547.995 368.819 552.015 368.819C564.65 368.819 574.892 358.576 574.892 345.941C574.892 333.307 564.65 323.065 552.015 323.065Z" fill="#1A2E35"/>
<path d="M552.015 323.065C539.38 323.065 529.138 333.307 529.138 345.941C529.138 352.442 531.854 358.304 536.207 362.469L532.951 368.547L540.936 365.957C544.218 367.778 547.995 368.819 552.015 368.819C564.65 368.819 574.892 358.576 574.892 345.941C574.892 333.307 564.65 323.065 552.015 323.065Z" stroke="#1A2E35" stroke-width="1.33333" stroke-miterlimit="10" stroke-linecap="round" stroke-linejoin="round"/>
<path d="M550.926 321.43C538.291 321.43 528.049 331.673 528.049 344.308C528.049 350.808 530.765 356.67 535.117 360.835L531.862 366.912L539.846 364.323C543.129 366.144 546.905 367.185 550.926 367.185C563.561 367.185 573.803 356.942 573.803 344.308C573.803 331.673 563.561 321.43 550.926 321.43Z" fill="white"/>
<path d="M550.926 321.43C538.291 321.43 528.049 331.673 528.049 344.308C528.049 350.808 530.765 356.67 535.117 360.835L531.862 366.912L539.846 364.323C543.129 366.144 546.905 367.185 550.926 367.185C563.561 367.185 573.803 356.942 573.803 344.308C573.803 331.673 563.561 321.43 550.926 321.43Z" stroke="#1A2E35" stroke-width="1.33333" stroke-miterlimit="10" stroke-linecap="round" stroke-linejoin="round"/>
<path d="M543.265 353.736L534.474 347.527V344.238L543.265 337.967V341.287L536.964 345.867L543.265 350.447V353.736Z" fill="#5AE4A7"/>
<path d="M545.939 354.842L552.64 329.945H555.498L548.767 354.842H545.939Z" fill="#5AE4A7"/>
<path d="M558.172 353.736V350.447L564.505 345.836L558.172 341.287V337.967L566.995 344.207V347.496L558.172 353.736Z" fill="#5AE4A7"/>
<path d="M544.355 352.374L535.564 346.165V342.876L544.355 336.605V339.925L538.054 344.505L544.355 349.085V352.374Z" fill="#1A2E35"/>
<path d="M547.029 353.48L553.729 328.583H556.588L549.857 353.48H547.029Z" fill="#1A2E35"/>
<path d="M559.262 352.374V349.085L565.594 344.474L559.262 339.925V336.605L568.084 342.845V346.134L559.262 352.374Z" fill="#1A2E35"/>
<defs>
<linearGradient id="paint0_linear_1_2" x1="500" y1="260" x2="500" y2="740" gradientUnits="userSpaceOnUse">
<stop offset="0.00303199" stop-color="#EB9F0D" stop-opacity="0"/>
<stop offset="0.961807" stop-color="#337EA8"/>
</linearGradient>
<linearGradient id="paint1_linear_1_2" x1="508.5" y1="465" x2="508.5" y2="601" gradientUnits="userSpaceOnUse">
<stop offset="0.35322" stop-color="white"/>
<stop offset="1" stop-color="white" stop-opacity="0"/>
</linearGradient>
</defs>
</svg>
